<svg id="Layer_1" data-name="Layer 1" xmlns="http://www.w3.org/2000/svg" viewBox="0 0 1920 1080"><defs><style>.cls-1{opacity:0.55;}.cls-2{fill:#fc5454;}.cls-10,.cls-11,.cls-18,.cls-19,.cls-20,.cls-21,.cls-22,.cls-3,.cls-5,.cls-6,.cls-7{fill:none;stroke-miterlimit:10;}.cls-11,.cls-19,.cls-3,.cls-5{stroke:#f9e255;}.cls-11,.cls-22,.cls-3,.cls-6{stroke-width:3px;}.cls-12,.cls-3,.cls-6,.cls-7{opacity:0.6;}.cls-4{fill:#f9e255;}.cls-11,.cls-22,.cls-23,.cls-4{opacity:0.5;}.cls-10,.cls-5,.cls-7{stroke-width:2px;}.cls-21,.cls-22,.cls-6{stroke:#35a854;}.cls-18,.cls-7{stroke:#fc5454;}.cls-8{fill:#4385f4;}.cls-8,.cls-9{opacity:0.7;}.cls-10,.cls-20{stroke:#4385f4;}.cls-13{fill:#4285f5;}.cls-14{fill:#eb4236;}.cls-15{fill:#fabd05;}.cls-16{fill:#33a854;}.cls-17{opacity:0.3;}.cls-23{fill:#35a854;}</style></defs><title>GDGBG</title><g class="cls-1"><rect class="cls-2" x="143.1" y="214.12" width="65.8" height="125.75" transform="translate(-95.44 92.54) rotate(-23.37)"/></g><rect class="cls-2" x="201" y="299" width="60" height="46"/><rect class="cls-3" x="1575" y="157" width="75" height="75"/><circle class="cls-4" cx="810.5" cy="80.5" r="55"/><polygon class="cls-5" points="843.76 82 791.62 51.9 791.62 112.11 843.76 82"/><polygon class="cls-6" points="397.45 585.77 364.89 581.99 377.89 612.08 397.45 585.77"/><polygon class="cls-6" points="436.45 574.77 403.89 570.99 416.89 601.08 436.45 574.77"/><polygon class="cls-6" points="414.89 544.76 373.89 539.99 390.26 577.87 414.89 544.76"/><circle class="cls-6" cx="125" cy="583" r="66"/><circle class="cls-7" cx="1528" cy="700" r="11"/><circle class="cls-7" cx="1521" cy="657" r="14"/><circle class="cls-7" cx="1509" cy="725" r="8.49" transform="translate(-70.68 1279.37) rotate(-45)"/><rect class="cls-8" x="1413.87" y="943.63" width="66.73" height="67.21" transform="translate(-267.12 1309.58) rotate(-45)"/><g class="cls-9"><path class="cls-10" d="M82.83,945.44,40.36,990.15a40.19,40.19,0,1,0,58.27,55.36l42.47-44.71"/><line class="cls-10" x1="51.88" y1="1000.14" x2="110.11" y2="938.86"/><line class="cls-10" x1="69.97" y1="1017.32" x2="128.19" y2="956.04"/><line class="cls-10" x1="88.05" y1="1034.5" x2="146.27" y2="973.22"/></g><circle class="cls-11" cx="1907.5" cy="487.5" r="62"/><line class="cls-10" x1="1379" y1="928" x2="1498" y2="1044"/><g class="cls-1"><path class="cls-2" d="M380-94.75,474.75,0,380,94.75,285.25,0,380-94.75M380-99,281,0l99,99L479,0,380-99Z"/></g><g class="cls-12"><circle class="cls-13" cx="1765" cy="52" r="37"/><circle class="cls-14" cx="1826" cy="63" r="16"/><circle class="cls-15" cx="1825.5" cy="103.5" r="19.5"/><circle class="cls-16" cx="1848" cy="38" r="6"/></g><g class="cls-17"><path class="cls-2" d="M1519.76,71.86v6c-.14,1.15-.26,2.29-.42,3.44A48.24,48.24,0,0,1,1480,122.26c-1.78.32-3.58.5-5.37.74h-6a4,4,0,0,0-.63-.15,44.89,44.89,0,0,1-16.69-4.38c-14.81-7.27-23.87-19-27.05-35.22-.35-1.77-.51-3.58-.75-5.38v-6a9.23,9.23,0,0,0,.17-.91,45.4,45.4,0,0,1,10.94-26.75c13.3-15.25,30-20.62,49.66-15.71C1502.17,33,1516,48.43,1519,66.67,1519.33,68.39,1519.52,70.13,1519.76,71.86Zm-46.46,1.31h25.51a1.53,1.53,0,0,0,.06-.27,67.36,67.36,0,0,0-2.64-17.3,1.2,1.2,0,0,0-.84-.65c-5.29-.76-10.59-1.53-15.9-2.18-2-.25-4.11-.21-6.19-.31ZM1470,52.51h-1.14A126.64,126.64,0,0,0,1447.7,55a1.26,1.26,0,0,0-.71.8,65.55,65.55,0,0,0-2.39,13c-.13,1.46-.16,2.92-.24,4.41H1470Zm29.1,24h-25.76v20.7h.63a125.68,125.68,0,0,0,21.62-2.47,1.12,1.12,0,0,0,.68-.72c.58-2.34,1.23-4.67,1.6-7C1498.37,83.58,1498.67,80.12,1499.08,76.54ZM1470,97.33V76.56h-25.53a2.82,2.82,0,0,0,0,.36A67.66,67.66,0,0,0,1447,94.13a1.21,1.21,0,0,0,.84.65c4.45.69,8.9,1.42,13.37,2C1464.09,97.09,1467,97.14,1470,97.33Zm0-48V30.09a15.56,15.56,0,0,0-6,1.66,25.84,25.84,0,0,0-9.22,7.82,44.8,44.8,0,0,0-6.46,12A121.53,121.53,0,0,1,1470,49.29Zm-21.65,48.84a42,42,0,0,0,9.1,15,21.57,21.57,0,0,0,9.62,6c.94.26,1.91.4,2.93.61V100.46A122.37,122.37,0,0,1,1448.31,98.12Zm25,21.55c.49-.06.86-.08,1.23-.15a19.66,19.66,0,0,0,9.35-4.54c5.27-4.45,8.55-10.23,11-16.58,0-.05,0-.14-.07-.24a122.62,122.62,0,0,1-21.46,2.3Zm0-70.39a121.34,121.34,0,0,1,21.59,2.31c-.06-.23-.07-.35-.11-.46a45,45,0,0,0-5.8-10.91,25.73,25.73,0,0,0-10.69-8.92,13.6,13.6,0,0,0-5-1.21Zm28.82,23.9h14.29c.06-.1.09-.12.09-.15a42.71,42.71,0,0,0-3.06-14.53,1.21,1.21,0,0,0-.8-.59c-2.8-.52-5.61-1-8.41-1.49l-4.64-.79A73.87,73.87,0,0,1,1502.1,73.19ZM1499.61,94a1.25,1.25,0,0,0,.35.07c4.29-.74,8.57-1.47,12.85-2.25a1.1,1.1,0,0,0,.66-.64c.54-1.5,1.07-3,1.5-4.54a41.43,41.43,0,0,0,1.52-10h-14.39A73.83,73.83,0,0,1,1499.61,94Zm-55.94-38.2a2.67,2.67,0,0,0-.5,0c-4.13.71-8.26,1.44-12.4,2.13a1.11,1.11,0,0,0-1,.86c-.74,2.65-1.62,5.26-2.21,7.94-.47,2.11-.58,4.3-.86,6.52h14.51A73.91,73.91,0,0,1,1443.67,55.76Zm-16.8,20.79c0,.12-.09.17-.09.23a43.19,43.19,0,0,0,3.06,14.43,1.21,1.21,0,0,0,.79.6c2.49.47,5,.88,7.49,1.31l5.57,1a74.66,74.66,0,0,1-2.53-17.54Zm4.79-22.17c.41,0,.66,0,.9-.05,3.76-.65,7.52-1.33,11.28-1.95a1.3,1.3,0,0,0,1.21-1,42.47,42.47,0,0,1,7.82-14.22c1.35-1.61,2.82-3.12,4.36-4.81A45.55,45.55,0,0,0,1431.66,54.38Zm0,40.9a45.64,45.64,0,0,0,25.66,22.16,2.6,2.6,0,0,0-.21-.34,44.57,44.57,0,0,1-12.15-19,1.17,1.17,0,0,0-.77-.63c-2.46-.47-4.93-.89-7.39-1.31Zm54.5-62.78a2.08,2.08,0,0,0,.18.21,44.11,44.11,0,0,1,12,18.88,1,1,0,0,0,.92.74c2.41.39,4.81.83,7.21,1.25l5.2.88A44.65,44.65,0,0,0,1486.11,32.5Zm0,84.79a44.9,44.9,0,0,0,25.45-21.92,8,8,0,0,0-.8,0c-3.76.65-7.51,1.34-11.28,1.94a1.52,1.52,0,0,0-1.34,1.13c-1.07,2.6-2.11,5.22-3.41,7.71A43.82,43.82,0,0,1,1486.15,117.28Z"/></g><rect class="cls-18" x="1687.04" y="923.24" width="101.01" height="77.76"/><rect class="cls-10" x="1677.02" y="914.02" width="101.01" height="77.76"/><rect class="cls-11" x="1667" y="904" width="101.01" height="77.76"/><rect class="cls-19" x="299.5" y="761.5" width="14" height="14"/><rect class="cls-20" x="267.5" y="986.5" width="14" height="14"/><circle class="cls-21" cx="1584.5" cy="347.5" r="10"/><path class="cls-22" d="M1824.77,780c-9.44,0-18.89-.21-28.32.06-8.5.25-16.16-6-18.3-14.48-2-7.91.89-15.29,7.68-19.92,2.14-1.46,2.43-2.24,1.78-4.72a11.31,11.31,0,0,1,14.07-14.07c2.59.68,3.49.31,4.87-2.22a25.57,25.57,0,0,1,19.09-13.58c13.51-2.29,27.06,7.58,29,21.11.06.39.14.77.21,1.16.37,2.29.95,3,3.18,3.44a20.73,20.73,0,0,1,12.83,8.52c9.46,13.12,1.83,31.83-14.09,34.52a16,16,0,0,1-2.64.17Z"/><rect class="cls-4" x="557" y="908" width="90" height="193" rx="19.5" ry="19.5"/><rect class="cls-23" x="703" y="992" width="53" height="100" rx="10" ry="10"/></svg>